
<svg xmlns="http://www.w3.org/2000/svg" version="1.1" xmlns:xlink="http://www.w3.org/1999/xlink" preserveAspectRatio="none" x="0px" y="0px" width="119px" height="148px" viewBox="0 0 119 148">
<defs>
<g id="Layer1_0_FILL">
<path fill="#D2D2D2" stroke="none" d="
M 92.75 95.25
Q 95.5126953125 90.3501953125 96.35 83 97.8357421875 68.7853515625 97.55 50.85 97.83984375 41.2482421875 94.9 42.95 76.9875 54.025 59.25 55.65 63.9623046875 51.363671875 67.15 46.4 48.228125 58.2841796875 27.9 60.5 25.4513671875 74.369921875 29.3 87.7 32.0560546875 94.680859375 32.4 114.65 32.65390625 122.739453125 37.8 128.35 38.0224609375 128.4927734375 38.1 128.7 45.0111328125 135.1005859375 50.55 142.05 53.8201171875 147.0205078125 61.65 147.5 69.4345703125 146.2140625 73.15 141.3 79.9056640625 133.887109375 85.6 128.85 85.96015625 128.449609375 86.3 128 89.7482421875 123.387890625 90.2 114.05 90.0818359375 104.5771484375 92.75 95.25 Z"/>

<path fill="#000000" stroke="none" d="
M 96.35 83
Q 95.5126953125 90.3501953125 92.75 95.25 90.0818359375 104.5771484375 90.2 114.05 89.7482421875 123.387890625 86.3 128 90.63203125 125.5826171875 93.8 121.25 94.05 123.9 93.35 126.35 97.65 123.15 100.8 117.7
L 101.85 121.7
Q 115.5 101.25 111.8 83.15 110.6 77.9 110.1 72.65 114.2 78.15 119.35 80.1 112.9 67.6 111.15 53.95 108.55 8.15 66.6 5.1 59.25 6.2 51.85 5.7 15.15 13.35 13.45 58.65
L 5.6 67.1
Q 8.9 67.2 12.2 65.9 12.6 82.5 0.35 93.75 6.45 94.05 11.4 90.45 7.8 97.4 0.75 101.05 9.35 101.8 17.3 97.25 18.15 114.7 29.1 125.1
L 29.5 121.15
Q 31.311328125 125.03203125 37.8 128.35 32.65390625 122.739453125 32.4 114.65 32.0560546875 94.680859375 29.3 87.7 25.4513671875 74.369921875 27.9 60.5 48.228125 58.2841796875 67.15 46.4 63.9623046875 51.363671875 59.25 55.65 76.9875 54.025 94.9 42.95 97.83984375 41.2482421875 97.55 50.85 97.8357421875 68.7853515625 96.35 83 Z"/>
</g>

<g id="Layer0_0_FILL">
<path fill="#FFFFFF" stroke="none" d="
M 60.6 18.45
Q 58.5 18.45 56.45 18.45
L 56.45 58.45 60.6 58.45 60.6 18.45
M 98.1 85.55
Q 105.35 76.5 102.9 58.45 98.1 18 64.75 18.45
L 64.75 58.45 60.6 58.45 60.6 95
Q 62.8 95.1 64.95 95.1 88.55 94.95 98.1 85.55 Z"/>

<path fill="#000000" stroke="none" d="
M 102.9 58.45
Q 105.35 76.5 98.1 85.55
L 112.25 91.4
Q 140.85 7 60.65 0 -19.65 7 8.9 91.4
L 23.05 85.55
Q 30.65 93.65 57.25 94.9
L 57.7 100.35
Q 52.4 103.55 58.7 113.35
L 59.1 116.9 64.1 116.9 64.25 112.6
Q 68.8 103.5 64.7 101.2
L 64.95 95.1
Q 62.8 95.1 60.6 95
L 60.6 58.45 56.45 58.45 56.45 18.45
Q 58.5 18.45 60.6 18.45
L 60.6 58.45 64.75 58.45 64.75 18.45
Q 98.1 18 102.9 58.45 Z"/>
</g>
</defs>

<g transform="matrix( 1, 0, 0, 1, 0,0) ">
<use xlink:href="#Layer1_0_FILL"/>
</g>

<g transform="matrix( 1, 0, 0, 1, 0,0) ">
<use xlink:href="#Layer0_0_FILL"/>
</g>
</svg>
